<?xml version="1.0" encoding="UTF-8" standalone="no"?>
<!-- Created with Inkscape (http://www.inkscape.org/) -->

<svg
   xmlns:dc="http://purl.org/dc/elements/1.1/"
   xmlns:cc="http://creativecommons.org/ns#"
   xmlns:rdf="http://www.w3.org/1999/02/22-rdf-syntax-ns#"
   xmlns:svg="http://www.w3.org/2000/svg"
   xmlns="http://www.w3.org/2000/svg"
   xmlns:sodipodi="http://sodipodi.sourceforge.net/DTD/sodipodi-0.dtd"
   xmlns:inkscape="http://www.inkscape.org/namespaces/inkscape"
   width="261.75867"
   height="45.935013"
   id="svg3329"
   version="1.1"
   inkscape:version="0.48.4 r9939"
   sodipodi:docname="New document 4">
  <defs
     id="defs3331">
    <clipPath
       id="clipPath3359"
       clipPathUnits="userSpaceOnUse">
      <path
         id="path3361"
         d="M 0,0 72,0 72,13 0,13 0,0 z"
         inkscape:connector-curvature="0" />
    </clipPath>
    <clipPath
       id="clipPath3353"
       clipPathUnits="userSpaceOnUse">
      <path
         id="path3355"
         d="m 0,12.695 72,0 0,-12.635 -72,0 0,12.635 z"
         inkscape:connector-curvature="0" />
    </clipPath>
  </defs>
  <sodipodi:namedview
     id="base"
     pagecolor="#ffffff"
     bordercolor="#666666"
     borderopacity="1.0"
     inkscape:pageopacity="0.0"
     inkscape:pageshadow="2"
     inkscape:zoom="1"
     inkscape:cx="41.12777"
     inkscape:cy="-101.4719"
     inkscape:document-units="px"
     inkscape:current-layer="layer1"
     showgrid="false"
     fit-margin-top="0"
     fit-margin-left="0"
     fit-margin-right="0"
     fit-margin-bottom="0"
     inkscape:window-width="1127"
     inkscape:window-height="756"
     inkscape:window-x="479"
     inkscape:window-y="326"
     inkscape:window-maximized="0" />
  <metadata
     id="metadata3334">
    <rdf:RDF>
      <cc:Work
         rdf:about="">
        <dc:format>image/svg+xml</dc:format>
        <dc:type
           rdf:resource="http://purl.org/dc/dcmitype/StillImage" />
        <dc:title></dc:title>
      </cc:Work>
    </rdf:RDF>
  </metadata>
  <g
     inkscape:label="Layer 1"
     inkscape:groupmode="layer"
     id="layer1"
     transform="translate(-404.75935,-384.95528)">
    <g
       transform="matrix(3.6355371,0,0,-3.6355371,404.75935,431.10842)"
       inkscape:label="AbbVieLogo_Small_Black"
       id="g3345">
      <g
         id="g3347" />
      <g
         id="g3349">
        <g
           clip-path="url(#clipPath3353)"
           id="g3351">
          <g
             clip-path="url(#clipPath3359)"
             id="g3357">
            <path
               id="path3363"
               style="fill:#231f20;fill-opacity:1;fill-rule:nonzero;stroke:none"
               d="m 34.466,1.601 c 0.926,0 1.157,0 2.229,0 2.64,0 3.538,1.677 3.538,3.182 0,1.52 -0.897,3.182 -3.538,3.182 -1.079,0 -1.42,0 -2.229,0 -2.758,0 -3.562,-1.75 -3.562,-3.182 0,-1.279 0.719,-3.182 3.562,-3.182 z m -3.654,6.47 c 0.323,0.364 1.394,1.353 3.429,1.353 0,0 1.272,0 2.621,0 3.937,0 5.047,-2.669 5.047,-4.641 0,-2.223 -1.335,-4.644 -5.047,-4.644 -0.764,0 -1.565,0 -2.777,0 -2.816,0 -4.854,1.822 -4.854,4.642 0,0.941 0,7.795 0,7.795 0,0 0.287,0 0.439,0 0.796,0 1.142,-0.4 1.142,-1.104 0,-0.108 0,-3.401 0,-3.401 z M 19.923,1.601 c 0.926,0 1.158,0 2.231,0 2.638,0 3.536,1.677 3.536,3.182 0,1.52 -0.897,3.182 -3.536,3.182 -1.081,0 -1.421,0 -2.231,0 -2.756,0 -3.562,-1.75 -3.562,-3.182 0,-1.279 0.719,-3.182 3.562,-3.182 z m -3.654,6.47 c 0.324,0.364 1.395,1.353 3.43,1.353 0,0 1.272,0 2.621,0 3.936,0 5.086,-2.669 5.086,-4.641 0,-2.223 -1.374,-4.644 -5.086,-4.644 -0.765,0 -1.566,0 -2.777,0 -2.817,0 -4.855,1.822 -4.855,4.642 0,0.941 0,7.795 0,7.795 0,0 0.288,0 0.439,0 0.796,0 1.142,-0.4 1.142,-1.104 0,-0.108 0,-3.401 0,-3.401 z m 40.378,1.353 c 0,0 0.245,0 0.323,0 0.728,0 1.22,-0.385 1.22,-1.198 0,-0.107 0,-8.087 0,-8.087 0,0 -0.179,0 -0.331,0 -0.769,0 -1.212,0.471 -1.212,1.253 0,0.107 0,8.032 0,8.032 z m 0.772,1.492 c 0.413,0 0.811,0.256 0.811,0.739 0,0.094 0,0.244 0,0.303 0,0.489 -0.402,0.737 -0.811,0.737 -0.404,0 -0.806,-0.244 -0.806,-0.737 0,-0.064 0,-0.197 0,-0.303 0,-0.487 0.396,-0.739 0.806,-0.739 z M 7.442,7.965 c -0.926,0 -1.16,0 -2.233,0 -2.638,0 -3.535,-1.68 -3.535,-3.182 0,-1.521 0.897,-3.183 3.535,-3.183 1.08,0 1.423,0 2.233,0 2.756,0 3.56,1.748 3.56,3.183 0,1.278 -0.716,3.182 -3.56,3.182 z m 5.749,-7.826 c -0.863,0 -1.228,0.328 -1.362,1.032 l -0.196,1.025 c -0.245,-0.428 -1.4,-2.057 -3.967,-2.057 0,0 -1.272,0 -2.62,0 C 1.11,0.139 0,2.809 0,4.783 c 0,2.22 1.333,4.641 5.046,4.641 0.766,0 1.565,0 2.776,0 2.819,0 4.384,-1.645 4.762,-3.642 0.312,-1.668 1.053,-5.643 1.053,-5.643 0,0 -0.134,0 -0.446,0 z m 36.6,0.587 C 49.396,0.187 49.232,0 48.781,0 48.279,0 48.12,0.258 47.774,0.726 c -0.83,1.133 -5.712,8.698 -5.712,8.698 0,0 0.375,0 0.699,0 1.132,0 1.508,-0.527 1.87,-1.079 0.315,-0.48 4.245,-6.512 4.245,-6.512 0,0 3.725,5.744 4.231,6.532 0.334,0.517 0.804,1.059 1.92,1.059 0.256,0 0.546,0 0.546,0 0,0 -5.103,-7.774 -5.782,-8.698 z m 15.494,7.338 c 0.569,0 2.671,0 3.49,0 1.257,0 1.545,-0.781 1.545,-1.285 0,-0.451 -0.262,-1.284 -1.545,-1.284 -0.86,0 -6.932,0 -6.932,0 0.088,0.874 0.815,2.569 3.442,2.569 z m 6.474,-7.493 c 0,0.762 -0.441,1.03 -1.172,1.03 -0.408,0 -5.36,0 -5.36,0 -2.584,0 -3.271,1.544 -3.388,2.535 0,0 5.489,0 7.268,0 2.233,0 2.893,1.607 2.893,2.643 0,1.104 -0.717,2.645 -2.893,2.645 -1.969,0 -3.976,0 -3.976,0 -3.767,0 -5.002,-2.563 -5.002,-4.641 0,-2.286 1.405,-4.644 4.992,-4.644 l 6.638,0 c 0,0 0,0.363 0,0.432"
               inkscape:connector-curvature="0" />
          </g>
        </g>
      </g>
    </g>
  </g>
</svg>
